<?xml version="1.0" encoding="utf-8"?>
<!-- Generator: Adobe Illustrator 18.0.0, SVG Export Plug-In . SVG Version: 6.00 Build 0)  -->
<!DOCTYPE svg PUBLIC "-//W3C//DTD SVG 1.1//EN" "http://www.w3.org/Graphics/SVG/1.1/DTD/svg11.dtd">
<svg version="1.1" id="Layer_1" xmlns="http://www.w3.org/2000/svg" xmlns:xlink="http://www.w3.org/1999/xlink" x="0px" y="0px"
	 width="69.7px" height="32px" viewBox="0 0 69.7 32" enable-background="new 0 0 69.7 32" xml:space="preserve">
<g id="Post_Card">
	<path fill="#FFFFFF" d="M40.3,32H7.7C3.4,32,0,28.8,0,24.7V7.6C0,3.4,3.5,0,7.7,0h32.5C44.5,0,48,3.4,48,7.6v17.1
		C48,28.8,44.6,32,40.3,32z M7.7,2C4.6,2,2,4.5,2,7.6v17.1c0,3,2.5,5.3,5.7,5.3h32.5c3.2,0,5.7-2.3,5.7-5.3V7.6
		C46,4.5,43.4,2,40.3,2H7.7z"/>
	<path fill="#FFFFFF" d="M24,26.8c-0.4,0-0.8-0.3-0.8-0.8V8c0-0.4,0.3-0.8,0.8-0.8s0.8,0.3,0.8,0.8v18C24.8,26.4,24.4,26.8,24,26.8z
		"/>
	<g>
		<g>
			<path fill="#FFFFFF" d="M35.6,8.6"/>
			<path fill="#FFFFFF" d="M38.9,7.6"/>
			<path fill="#FFFFFF" d="M38.5,12.5c-0.2,0-0.3,0-0.4-0.1c-2.1-1.5-2.9-2.4-3.2-3.6c-0.3-1.1,0.3-2.6,1.7-3
				c0.6-0.2,1.3-0.1,1.9,0.2c0.6,0.3,1,0.8,1.2,1.5c0.1,0.4-0.1,0.8-0.5,0.9c-0.4,0.1-0.8-0.1-0.9-0.5c-0.1-0.2-0.2-0.4-0.5-0.6
				c-0.2-0.1-0.5-0.1-0.7-0.1c-0.5,0.1-0.8,0.8-0.7,1.2c0.2,0.7,0.7,1.4,2.6,2.8c0.3,0.2,0.4,0.7,0.2,1C39,12.4,38.7,12.5,38.5,12.5
				z"/>
		</g>
		<g>
			<path fill="#FFFFFF" d="M39,12.7c-0.5,0-0.8-0.2-1.1-0.4c-0.3-0.3-0.4-0.7-0.1-1.1c0.3-0.3,0.7-0.4,1.1-0.1
				c0.1,0.1,0.1,0.1,0.1,0.1c0.4,0,0.8,0.3,0.8,0.7C39.8,12.3,39.4,12.6,39,12.7C39,12.7,39,12.7,39,12.7z"/>
		</g>
		<g>
			<path fill="#FFFFFF" d="M42.2,8.4"/>
			<path fill="#FFFFFF" d="M38.9,7.6"/>
			<path fill="#FFFFFF" d="M39.5,12.5c-0.2,0-0.4-0.1-0.6-0.3c-0.3-0.3-0.2-0.8,0.1-1.1c1.9-1.5,2.3-2.2,2.4-3
				c0.1-0.4-0.2-1-0.7-1.1c-0.2-0.1-0.5,0-0.7,0.1c-0.2,0.1-0.4,0.3-0.4,0.6c-0.1,0.4-0.5,0.7-0.9,0.6c-0.4-0.1-0.7-0.5-0.6-0.9
				c0.1-0.6,0.5-1.2,1.1-1.5c0.6-0.4,1.2-0.5,1.8-0.3c1.4,0.3,2.1,1.8,1.9,2.9c-0.2,1.2-1,2.2-3,3.8C39.8,12.4,39.7,12.5,39.5,12.5z
				"/>
		</g>
		<g>
			<path fill="#FFFFFF" d="M39,12.7c-0.4,0-0.7-0.3-0.8-0.7c0-0.4,0.3-0.8,0.7-0.8l0,0c0,0,0.1,0,0.1-0.1c0.3-0.3,0.8-0.2,1.1,0.1
				c0.3,0.3,0.3,0.8-0.1,1.1C39.9,12.4,39.5,12.7,39,12.7C39,12.7,39,12.7,39,12.7z"/>
		</g>
	</g>
	<path fill="#FFFFFF" d="M19,18.5H8c-0.4,0-0.8-0.3-0.8-0.8S7.6,17,8,17h11c0.4,0,0.8,0.3,0.8,0.8S19.4,18.5,19,18.5z"/>
	<path fill="#FFFFFF" d="M19,22.5H8c-0.4,0-0.8-0.3-0.8-0.8S7.6,21,8,21h11c0.4,0,0.8,0.3,0.8,0.8S19.4,22.5,19,22.5z"/>
	<path fill="#FFFFFF" d="M19,26.5H8c-0.4,0-0.8-0.3-0.8-0.8S7.6,25,8,25h11c0.4,0,0.8,0.3,0.8,0.8S19.4,26.5,19,26.5z"/>
	<path fill="#FFFFFF" d="M60.1,6.6h-10c-0.6,0-1-0.4-1-1v0c0-0.6,0.4-1,1-1h10c0.6,0,1,0.4,1,1v0C61.1,6.2,60.6,6.6,60.1,6.6z"/>
	<path fill="#FFFFFF" d="M65.7,12H52.1c-0.6,0-1-0.4-1-1v0c0-0.6,0.4-1,1-1h13.6c0.6,0,1,0.4,1,1v0C66.7,11.5,66.2,12,65.7,12z"/>
	<path fill="#FFFFFF" d="M68.7,17.3H53.3c-0.5,0-0.9-0.4-0.9-0.9v-0.1c0-0.5,0.4-0.9,0.9-0.9h15.5c0.5,0,0.9,0.4,0.9,0.9v0.1
		C69.7,16.9,69.2,17.3,68.7,17.3z"/>
	<path fill="#FFFFFF" d="M60.8,22.6h-10c-0.6,0-1-0.4-1-1v0c0-0.6,0.4-1,1-1h10c0.6,0,1,0.4,1,1v0C61.8,22.1,61.4,22.6,60.8,22.6z"
		/>
	<path fill="#FFFFFF" d="M64.9,27.9h-12c-0.5,0-0.8-0.4-0.8-0.8v-0.3c0-0.5,0.4-0.8,0.8-0.8h12c0.5,0,0.8,0.4,0.8,0.8v0.3
		C65.8,27.5,65.4,27.9,64.9,27.9z"/>
</g>
</svg>
