<?xml version="1.0" encoding="utf-8"?>
<!-- Generator: Adobe Illustrator 18.0.0, SVG Export Plug-In . SVG Version: 6.00 Build 0)  -->
<!DOCTYPE svg PUBLIC "-//W3C//DTD SVG 1.1//EN" "http://www.w3.org/Graphics/SVG/1.1/DTD/svg11.dtd">
<svg version="1.1" id="Layer_1" xmlns="http://www.w3.org/2000/svg" xmlns:xlink="http://www.w3.org/1999/xlink" x="0px" y="0px"
	 width="171.8px" height="173.8px" viewBox="0 0 171.8 173.8" enable-background="new 0 0 171.8 173.8" xml:space="preserve">
<g>
	<g>
		<path fill="#2980B9" d="M165.1,118.4H18.6l18.5-30H25.2L0,126.4h53.7l32.2,47.4l32.2-47.4h53.7L165.1,118.4z M85.9,156.3
			l-20.3-29.9h40.6L85.9,156.3z"/>
		<path fill="#2980B9" d="M6.6,56.5l146.7,1l-20.5,30.9h12l27.1-41h-53.7L85.9,0L53.7,47.4H0L6.6,56.5z M85.9,17.5l20.3,29.9H65.6
			L85.9,17.5z"/>
	</g>
	<g>
		<path fill="#2980B9" d="M31.3,81.1c-0.1,0.4-0.2,0.6-0.4,0.7c-0.1,0.1-0.3,0.1-0.6,0.1H28c-0.5,0-0.6-0.3-0.5-0.8l3.2-11.1
			c0.3-1-0.1-1.6-1.3-1.8C28.6,68,27.5,68,26.2,68c-1.3,0-2.7,0.1-4.2,0.2c-0.5,0-0.7-0.2-0.6-0.7l0.5-1.8c0.1-0.5,0.5-0.8,1-0.9
			c2.3-0.2,4.4-0.4,6.2-0.4c2.4,0,4,0.4,4.9,1.2c0.8,0.8,1,2.2,0.4,4.2L31.3,81.1z M21.7,81.1c-0.1,0.4-0.2,0.6-0.4,0.7
			c-0.1,0.1-0.3,0.1-0.6,0.1h-2.4c-0.5,0-0.6-0.3-0.5-0.8l1.5-5.2c0.3-1.2,0.9-2.3,1.8-3.3c0.2-0.3,0.5-0.4,0.9-0.4h1.6
			c0.4,0,0.6,0.2,0.5,0.7L21.7,81.1z"/>
		<path fill="#2980B9" d="M38.5,81.1c-0.1,0.4-0.2,0.6-0.4,0.7c-0.1,0.1-0.3,0.1-0.6,0.1h-2.4c-0.5,0-0.6-0.3-0.5-0.8l4.4-15.6
			c0.2-0.6,0.5-0.9,0.9-0.9h2.4c0.3,0,0.5,0.1,0.5,0.2c0,0.1,0,0.3-0.1,0.7L38.5,81.1z"/>
		<path fill="#2980B9" d="M57.4,73.9L52,81c-0.4,0.6-0.8,0.9-1.1,0.9h-2.8c-0.3,0-0.4-0.1-0.3-0.4c0.1-0.2,0.2-0.5,0.5-0.8l6.6-8.7
			c0.4-0.5,0.6-1,0.8-1.5c0.2-0.6,0.1-1.2-0.1-1.6c-0.3-0.4-0.7-0.6-1.4-0.6h-8.4c-0.5,0-0.6-0.3-0.5-0.8l0.6-2.1
			c0.1-0.5,0.4-0.7,0.9-0.7H55c1.8,0,3.1,0.5,3.9,1.6c0.8,1.1,0.9,2.4,0.4,4.1C59,71.4,58.4,72.7,57.4,73.9z M43.5,88.8
			c-0.1,0.3-0.2,0.5-0.3,0.6c-0.1,0.1-0.3,0.1-0.6,0.1h-2.4c-0.5,0-0.6-0.3-0.5-0.8l3.7-13c0.2-0.7,0.8-1.9,1.8-3.4
			c0.2-0.4,0.6-0.6,0.9-0.6h1.5c0.4,0,0.5,0.2,0.4,0.7L43.5,88.8z"/>
		<path fill="#2980B9" d="M64.8,81c-0.1,0.4-0.2,0.6-0.4,0.7c-0.1,0.1-0.4,0.2-0.8,0.2h-5.1c-0.4,0-0.6-0.2-0.4-0.7l0.6-2
			c0.1-0.3,0.2-0.5,0.3-0.6c0.1-0.1,0.3-0.1,0.6-0.1h2.2l2.9-10.3h-1c-0.5,0-0.6-0.2-0.5-0.7l0.5-1.7c0.1-0.3,0.2-0.6,0.2-0.7
			c0.1-0.1,0.2-0.2,0.5-0.2c1.5-0.2,4.2-0.3,8.1-0.3c2.3,0,3.9,0.4,4.6,1.3c0.8,0.9,0.8,2.4,0.2,4.6l-3,10.6
			c-0.2,0.6-0.5,0.8-0.9,0.8h-2.5c-0.4,0-0.6-0.3-0.4-0.8l3-10.6c0.3-0.9,0.2-1.6-0.1-2c-0.3-0.4-1-0.5-2.1-0.5c-0.8,0-1.8,0-3,0
			L64.8,81z"/>
		<path fill="#2980B9" d="M90,81c-0.1,0.4-0.2,0.6-0.4,0.7c-0.1,0.1-0.4,0.2-0.8,0.2h-5.1c-0.4,0-0.6-0.2-0.4-0.7l0.6-2
			c0.1-0.3,0.2-0.5,0.3-0.6c0.1-0.1,0.3-0.1,0.6-0.1H87l2.9-10.3h-1c-0.5,0-0.6-0.2-0.5-0.7l0.5-1.7c0.1-0.3,0.2-0.6,0.2-0.7
			c0.1-0.1,0.2-0.2,0.5-0.2c1.5-0.2,4.2-0.3,8.1-0.3c2.3,0,3.9,0.4,4.6,1.3c0.8,0.9,0.8,2.4,0.2,4.6l-3,10.6
			c-0.2,0.6-0.5,0.8-0.9,0.8h-2.5c-0.4,0-0.6-0.3-0.4-0.8l3-10.6c0.3-0.9,0.2-1.6-0.1-2c-0.3-0.4-1-0.5-2.1-0.5c-0.8,0-1.8,0-3,0
			L90,81z"/>
		<path fill="#2980B9" d="M108.6,81c-0.1,0.4-0.2,0.6-0.4,0.7c-0.1,0.1-0.4,0.2-0.8,0.2h-5.1c-0.4,0-0.6-0.2-0.4-0.7l0.6-2
			c0.1-0.3,0.2-0.5,0.3-0.6c0.1-0.1,0.3-0.1,0.6-0.1h2.2l2.9-10.3h-1c-0.5,0-0.6-0.2-0.5-0.7l0.5-1.7c0.1-0.3,0.2-0.6,0.2-0.7
			c0.1-0.1,0.2-0.2,0.5-0.2c1.5-0.2,4.2-0.3,8.1-0.3c2.3,0,3.9,0.4,4.6,1.3c0.8,0.9,0.8,2.4,0.2,4.6l-3,10.6
			c-0.2,0.6-0.5,0.8-0.9,0.8h-2.5c-0.4,0-0.6-0.3-0.4-0.8l3-10.6c0.3-0.9,0.2-1.6-0.1-2c-0.3-0.4-1-0.5-2.1-0.5c-0.8,0-1.8,0-3,0
			L108.6,81z"/>
		<path fill="#2980B9" d="M138.5,65.9L129.3,81c-0.4,0.6-0.7,0.9-1.1,0.9h-2.7c-0.3,0-0.3-0.2-0.3-0.5c0.1-0.2,0.2-0.5,0.4-0.8
			l7.6-12.5h-8.1c-0.5,0-0.6-0.3-0.5-0.8l2.2-7.6c0.1-0.5,0.5-0.7,1-0.7h2.4c0.4,0,0.6,0.3,0.4,0.9l-1.3,4.6h9
			c0.5,0,0.7,0.2,0.6,0.7C138.7,65.4,138.6,65.6,138.5,65.9z"/>
	</g>
	<g>
		<path fill="#2980B9" d="M40.6,109.3l4.2-16.4h1.7l-3.7,14.7h6.6l-0.4,1.7H40.6z"/>
		<path fill="#2980B9" d="M60.8,109.3l-0.5-5.2h-6l-3.2,5.2h-1.8l10.1-16.5h1.5l1.7,16.5H60.8z M60.2,102.4l-0.4-5.1
			c-0.1-0.6-0.1-1.4-0.1-2.4c-0.3,0.7-0.7,1.5-1.2,2.4l-3,5.1H60.2z"/>
		<path fill="#2980B9" d="M69.2,109.3h-1.7l3.7-14.7h-4.7l0.4-1.7h11.2l-0.4,1.7h-4.7L69.2,109.3z"/>
		<path fill="#2980B9" d="M84.5,109.3h-8.3l4.2-16.4h8.3l-0.4,1.7h-6.6l-1.3,5.3h6.2l-0.4,1.7h-6.2l-1.5,6h6.6L84.5,109.3z"/>
		<path fill="#2980B9" d="M92.3,109.3h-1.7l3.7-14.7h-4.7l0.4-1.7h11.2l-0.4,1.7h-4.7L92.3,109.3z"/>
		<path fill="#2980B9" d="M109.3,109.3h-1.7l3.7-14.7h-4.7l0.4-1.7h11.2l-0.4,1.7H113L109.3,109.3z"/>
		<path fill="#2980B9" d="M116.2,109.3l4.2-16.4h1.7l-4.2,16.4H116.2z"/>
		<path fill="#2980B9" d="M132.8,109.3h-2l-3.4-8l-1.9,1.5l-1.6,6.4H122l4.2-16.4h1.7l-2.1,8.1l8.8-8.1h2l-7.8,7.1L132.8,109.3z"/>
		<path fill="#2980B9" d="M147.5,92.9h1.9l-9.5,16.4h-1.7l-1.2-16.4h1.8l0.7,10.6c0.1,1.2,0.1,2.4,0,3.6c0.6-1.2,1.2-2.4,1.9-3.6
			L147.5,92.9z"/>
		<path fill="#2980B9" d="M156.6,109.3l-0.5-5.2h-6l-3.2,5.2h-1.8l10.1-16.5h1.5l1.7,16.5H156.6z M156,102.4l-0.4-5.1
			c-0.1-0.6-0.1-1.4-0.1-2.4c-0.3,0.7-0.7,1.5-1.2,2.4l-3,5.1H156z"/>
	</g>
</g>
</svg>
